<svg viewBox="0 0 100 100" xmlns="http://www.w3.org/2000/svg" aria-hidden="true">
  <rect width="100" height="100" fill="#cf0" />
  <polygon points="21.6 23.6 21.6 32.9 36 47.6 45.7 47.6 48.3 45 48.3 38.9 33.5 23.6" fill="#0b0b0b" />
  <polygon points="66.8 23.6 51.7 38.9 51.7 45 54.3 47.6 64.3 47.6 78.5 32.9 78.5 23.6" fill="#0b0b0b" />
  <polygon points="35.9 53.3 21.6 67.1 21.6 76.7 33.4 76.7 48.3 60.8 48.3 55.5 45.7 52.7 35.9 52.7" fill="#0b0b0b" />
  <polygon points="54.4 52.7 51.7 55.4 51.7 61 66.8 76.7 78.5 76.7 78.5 67.1 64.3 52.7" fill="#0b0b0b" />
</svg>
